# xmcd CD database file
#
# Track frame offsets:
#	150
#	12785
#	27740
#	46562
#	63630
#	74795
#	92140
#	113335
#	126377
#	142092
#	157045
#	172440
#	188407
#	206780
#
# Disc length: 2991 seconds
#
# Revision: 1
# Processed by: cddbd v1.5PL3 Copyright (c) Steve Scherf et al.
# Submitted via: CDex 1.51
#
DISCID=d30bad0e
DTITLE=Lewis Cowdrey - It's Lewis
DYEAR=1994
DGENRE=Blues
TTITLE0=Skin to Skin
TTITLE1=Not Doing Too Bad
TTITLE2=I Don't Mind
TTITLE3=Itchy and Scratchy
TTITLE4=I got My Eyes on You
TTITLE5=It's Lewis
TTITLE6=From Any Angle
TTITLE7=Think
TTITLE8=Wonderful One
TTITLE9=Dresses Too Short
TTITLE10=Bloody Tears
TTITLE11=Check It Out on Me
TTITLE12=No Flats
TTITLE13=Wade in the Water
EXTD=YEAR: 1994
EXTT0=
EXTT1=
EXTT2=
EXTT3=
EXTT4=
EXTT5=
EXTT6=
EXTT7=
EXTT8=
EXTT9=
EXTT10=
EXTT11=
EXTT12=
EXTT13=
PLAYORDER=
